<?xml version="1.0" standalone="no"?>
<svg version="1.0" xmlns="http://www.w3.org/2000/svg"
 width="38.000000pt" height="31.000000pt" viewBox="20 50 288.000000 51.000000"
 preserveAspectRatio="xMidYMid meet">

<g transform="translate(0.000000,191.000000) scale(0.100000,-0.100000)"
fill="#1c1678" stroke="none">
<path d="M2465 1870 l-39 -40 41 -42 41 -41 47 44 46 44 -32 38 c-17 20 -39
37 -48 37 -9 0 -35 -18 -56 -40z"/>
<path d="M2365 1780 l-39 -40 42 -42 42 -42 35 34 c19 19 35 31 35 27 0 -3
-15 -20 -32 -36 l-33 -31 26 -26 27 -26 46 42 47 43 -22 24 c-13 12 -29 23
-37 23 -9 0 -12 3 -8 7 8 8 -63 83 -79 83 -6 0 -29 -18 -50 -40z"/>
<path d="M2555 1780 l-39 -40 23 -24 23 -25 44 37 c45 37 53 59 32 80 -21 21
-43 13 -83 -28z"/>
<path d="M2165 1735 c-33 -29 -57 -57 -53 -60 8 -8 128 93 128 106 0 17 -16 7
-75 -46z"/>
<path d="M2200 1725 l-33 -34 34 -40 c19 -21 40 -42 47 -45 7 -3 31 11 54 32
l41 38 -39 42 c-21 23 -45 42 -54 42 -9 0 -31 -16 -50 -35z"/>
<path d="M2570 1670 c-52 -49 -103 -89 -112 -90 -22 0 -24 -18 -3 -26 9 -4 32
9 58 32 77 69 177 164 177 169 0 19 -38 -8 -120 -85z"/>
<path d="M2614 1658 c-41 -40 -79 -74 -84 -76 -21 -7 -8 -40 29 -76 l40 -39
95 88 c53 48 96 90 96 94 0 12 -76 81 -89 81 -7 0 -46 -33 -87 -72z m27 -55
c13 -16 12 -17 -3 -4 -17 13 -22 21 -14 21 2 0 10 -8 17 -17z"/>
<path d="M2140 1670 c-12 -7 3 -27 75 -101 54 -55 85 -94 77 -96 -7 -3 -19 1
-27 7 -8 7 -22 9 -31 6 -10 -4 -32 8 -62 35 -61 53 -188 113 -285 134 -90 20
-276 16 -342 -6 -39 -13 -35 -14 95 -20 79 -4 156 -13 186 -23 200 -63 354
-188 439 -355 47 -94 65 -173 65 -282 0 -110 -19 -196 -68 -299 -47 -100 -174
-229 -279 -283 -219 -114 -488 -99 -666 37 -41 32 -50 32 -70 4 -14 -22 -16
-22 -33 -6 -17 17 -19 17 -40 -3 -13 -12 -27 -18 -33 -14 -15 9 -14 25 2 19 7
-2 24 7 37 21 l24 25 -64 65 -64 65 -65 -65 -66 -65 37 -37 37 -37 23 20 c23
19 23 19 6 -2 -17 -19 -16 -22 9 -58 l26 -39 -89 -88 c-49 -49 -92 -89 -95
-89 -11 0 -82 71 -76 76 3 3 18 -8 33 -25 15 -17 32 -31 38 -31 12 0 156 140
156 151 0 14 -40 50 -49 44 -6 -3 -9 0 -6 7 3 8 -13 31 -35 53 l-41 40 -39
-41 c-21 -22 -69 -67 -106 -99 -38 -32 -69 -62 -69 -66 0 -4 38 -42 84 -84
l83 -77 108 107 c74 74 113 106 126 103 14 -2 18 2 17 18 -1 13 13 35 36 58
l38 37 21 -33 c11 -18 20 -34 18 -35 -1 -1 -16 3 -33 9 -37 14 -68 -4 -60 -34
3 -10 1 -21 -4 -24 -14 -9 -11 -22 13 -44 l22 -20 53 52 c29 29 53 56 53 61 0
5 -10 17 -22 27 -22 18 -23 18 -4 39 11 12 22 21 26 21 3 0 33 -21 66 -46 125
-97 238 -135 404 -137 100 0 127 3 204 28 88 28 198 92 262 151 162 152 253
406 225 625 -12 92 -31 150 -83 253 -21 43 -38 79 -36 81 2 1 13 8 26 14 20
11 25 8 48 -18 25 -30 26 -30 52 -14 21 13 19 8 -12 -25 -49 -51 -40 -68 12
-21 l37 34 -32 -35 c-18 -20 -33 -39 -33 -44 0 -12 74 -96 85 -96 19 1 77 61
71 75 -3 9 0 12 10 8 16 -6 84 52 84 71 -1 12 -77 96 -87 96 -4 0 -24 -17 -45
-37 l-38 -37 33 -36 32 -35 -38 35 -37 34 43 46 44 45 -22 23 c-12 12 -28 22
-36 22 -8 0 -36 -21 -63 -46 l-48 -46 -16 31 c-15 32 -14 33 21 69 l37 38 -22
22 -22 22 -39 -38 -39 -37 -82 88 c-45 48 -83 87 -86 87 -3 0 -12 -5 -20 -10z
m-1012 -1179 c-13 -16 -32 -34 -43 -41 -19 -12 -19 -12 -5 6 15 19 63 63 68
64 2 0 -7 -13 -20 -29z m-180 -191 c-7 -11 -17 -20 -22 -20 -5 0 -1 9 9 20 10
11 20 20 22 20 2 0 -2 -9 -9 -20z"/>
<path d="M2297 1622 c-34 -34 -39 -52 -15 -52 15 0 88 72 82 81 -10 17 -30 9
-67 -29z"/>
<path d="M1520 1600 c-169 -26 -332 -141 -418 -293 -80 -141 -96 -327 -42
-488 16 -50 45 -113 63 -142 194 -302 634 -342 905 -83 58 55 126 166 153 251
33 101 31 252 -4 353 -49 140 -139 253 -262 327 -110 66 -266 95 -395 75z
m199 -29 c13 -3 -31 -6 -98 -6 -67 0 -112 3 -99 7 30 8 166 8 197 -1z m-264
-27 c-22 -8 -44 -19 -49 -24 -12 -12 -36 -13 -36 -2 0 5 21 16 48 24 59 20 91
22 37 2z m284 -9 c71 -18 91 -13 40 10 -24 12 -27 15 -9 11 14 -3 33 -6 43 -6
17 0 20 -19 4 -31 -5 -3 7 -12 25 -19 18 -8 49 -24 69 -37 22 -14 43 -21 53
-17 13 5 31 -8 67 -47 72 -78 167 -274 118 -244 -5 4 -9 17 -9 29 0 65 -143
263 -181 251 -11 -4 -33 4 -56 19 -39 27 -53 32 -53 18 0 -4 15 -16 34 -26 41
-22 119 -98 155 -151 24 -34 46 -83 77 -170 6 -16 8 -17 11 -4 9 38 -98 249
-127 249 -5 0 -10 7 -10 15 0 21 19 19 27 -2 4 -10 24 -42 45 -72 47 -67 76
-144 83 -219 3 -31 8 -69 10 -84 3 -16 0 -28 -5 -28 -6 0 -10 26 -10 59 0 47
-3 60 -17 63 -12 3 -24 26 -35 66 -10 33 -37 89 -61 124 -45 66 -145 155 -180
160 -26 4 -35 28 -10 28 14 1 12 4 -9 15 -37 20 -153 46 -172 39 -11 -4 -16
-1 -16 11 0 11 6 15 18 11 9 -3 46 -12 81 -21z m-199 -45 c0 -13 -7 -20 -19
-20 -25 0 -88 -27 -97 -42 -5 -8 -2 -9 12 -4 18 8 136 46 142 46 1 0 2 -7 2
-16 0 -11 -5 -14 -17 -10 -23 9 -135 -30 -182 -65 -23 -16 -41 -24 -41 -19 0
6 15 20 34 31 23 14 32 25 29 38 -3 14 7 21 57 36 66 20 94 42 39 30 -59 -12
-160 -66 -200 -106 -43 -43 -49 -46 -49 -24 0 8 4 15 10 15 5 0 25 14 44 30
42 38 172 99 209 100 20 0 27 -5 27 -20z m168 -6 c17 -3 32 -11 32 -18 0 -7
36 -31 80 -52 44 -22 80 -45 80 -51 0 -18 -5 -16 -36 12 -15 14 -50 33 -77 43
-28 9 -52 24 -55 34 -4 18 -65 32 -111 26 -13 -2 -26 3 -28 10 -5 12 9 12 115
-4z m-358 -19 c0 -8 -6 -15 -14 -15 -8 0 -42 -25 -75 -56 -51 -47 -63 -54 -78
-44 -14 9 -14 10 -2 7 10 -4 42 18 85 59 72 67 84 74 84 49z m0 -70 c0 -8 -6
-15 -13 -15 -8 0 -24 -11 -37 -25 -13 -14 -18 -25 -12 -25 19 0 14 -20 -15
-54 -34 -41 -73 -124 -73 -158 0 -18 -5 -28 -15 -28 -8 0 -15 1 -15 3 0 15 56
140 76 170 14 22 23 46 19 54 -3 11 8 30 32 54 42 41 53 47 53 24z m216 -97
c9 -21 21 -35 25 -32 5 3 9 -2 9 -10 0 -31 -20 -16 -45 33 -31 63 -43 70 -67
41 -27 -34 -22 -50 32 -109 40 -42 48 -56 39 -67 -6 -8 -8 -14 -3 -14 4 0 -2
-9 -14 -20 -17 -16 -22 -32 -22 -70 0 -47 25 -130 39 -130 4 0 38 20 76 43
l70 44 7 63 c4 34 10 65 14 69 4 3 4 -18 0 -48 -8 -63 11 -103 47 -100 44 4
107 -1 107 -9 0 -9 -91 -8 -135 2 -24 5 -47 -3 -110 -37 -79 -43 -80 -45 -99
-103 -21 -64 -24 -70 -31 -63 -2 3 2 28 9 57 8 29 10 52 6 52 -5 0 -46 -25
-91 -55 -45 -30 -85 -52 -88 -49 -9 9 52 56 123 94 36 19 66 42 66 50 0 8 -9
43 -19 77 -21 69 -18 109 10 124 28 15 23 28 -29 88 l-48 54 -18 -27 c-19 -29
-23 -68 -12 -104 6 -19 4 -22 -20 -22 -26 0 -27 1 -9 14 19 14 19 15 -4 57
l-24 42 33 26 c18 14 53 47 79 73 l46 48 17 -23 c9 -12 25 -39 34 -59z m64 41
c0 -5 -4 -9 -10 -9 -5 0 -10 7 -10 16 0 8 5 12 10 9 6 -3 10 -10 10 -16z
m-399 -71 c-16 -24 -40 -74 -52 -111 -13 -39 -27 -67 -35 -67 -9 0 -14 -11
-14 -30 0 -20 5 -30 15 -30 11 0 15 -12 15 -50 0 -58 30 -154 65 -210 37 -58
85 -110 103 -110 11 0 8 8 -13 30 -38 40 -26 39 16 -2 19 -17 62 -44 97 -61
34 -16 62 -33 62 -38 0 -13 -2 -12 -71 27 -37 20 -65 31 -67 25 -7 -20 -20
-12 -71 42 -65 66 -115 165 -132 259 -13 69 -14 71 -17 30 -3 -47 30 -163 54
-186 16 -16 19 -36 5 -36 -9 0 -40 67 -61 133 -17 55 -16 202 3 268 26 90 57
153 69 141 8 -8 6 -16 -5 -26 -9 -9 -24 -40 -35 -68 -30 -83 -34 -98 -23 -98
5 0 13 15 16 33 9 42 50 128 76 161 33 42 33 23 0 -26z m819 -46 c34 -75 35
-80 35 -204 0 -95 -3 -130 -14 -140 -12 -11 -12 -9 -5 12 5 14 8 75 8 135 0
91 -4 118 -21 155 -26 53 -30 31 -7 -31 10 -27 17 -76 17 -129 1 -80 -9 -125
-48 -212 -5 -13 -3 -18 9 -18 28 0 18 -17 -57 -94 -70 -72 -174 -137 -217
-135 -8 0 4 8 28 17 33 14 40 20 30 30 -6 6 -10 13 -7 14 41 26 92 48 99 43
11 -7 60 23 60 36 0 5 -7 9 -16 9 -11 0 -5 12 20 42 100 117 117 323 38 470
-1 3 4 8 13 10 15 3 15 6 -4 29 -18 23 -19 39 -2 39 3 0 22 -35 41 -78z m-947
-19 c-3 -18 -9 -33 -14 -33 -12 0 -11 14 3 45 14 32 17 29 11 -12z m638 -29
c-9 -28 -9 -29 -10 -3 -1 14 2 29 6 32 11 12 13 2 4 -29z m-406 -64 c-32 -7
-48 -3 -41 9 3 4 20 5 38 2 l33 -5 -30 -6z m-266 -127 c-1 -78 -6 -74 -12 10
-2 31 0 57 5 57 4 0 8 -30 7 -67z m701 47 c0 -5 -4 -10 -10 -10 -5 0 -10 5
-10 10 0 6 5 10 10 10 6 0 10 -4 10 -10z m-657 -126 c6 -61 76 -199 99 -198 9
1 40 -21 69 -48 55 -51 153 -108 188 -108 11 0 22 -4 26 -9 30 -49 -154 42
-221 109 -30 31 -53 46 -65 43 -12 -4 -25 9 -45 44 -33 55 -86 202 -78 215 11
17 21 -3 27 -48z m84 21 c1 -15 7 -41 13 -58 5 -17 8 -32 5 -35 -5 -5 -5 -3
-30 67 -18 53 -19 64 -3 59 7 -3 14 -17 15 -33z m614 11 c-10 -11 -8 -17 6
-25 23 -14 8 -14 -18 -1 -24 13 -24 27 -1 33 9 3 19 5 21 6 2 0 -2 -5 -8 -13z
m-667 -201 c16 -27 52 -75 80 -106 41 -45 39 -44 -13 9 -65 67 -125 172 -136
242 -4 21 3 9 17 -30 13 -36 36 -87 52 -115z m775 144 c27 -10 45 -39 23 -39
-5 0 -14 -11 -20 -24 -16 -35 -53 -76 -64 -70 -5 3 10 28 33 55 23 27 40 51
38 53 -2 2 -17 11 -34 19 -35 19 -22 22 24 6z m241 -20 c0 -7 -16 -45 -35 -86
-40 -83 -129 -184 -203 -232 -69 -44 -196 -88 -207 -71 -2 4 14 10 37 13 55 7
172 67 230 117 61 53 146 180 154 231 6 35 24 56 24 28z m-62 -16 c-18 -41
-60 -113 -68 -118 -15 -10 -12 -25 6 -25 9 0 14 -4 12 -8 -7 -20 -137 -126
-178 -147 -49 -25 -105 -43 -81 -27 7 5 11 14 7 20 -4 6 21 25 56 44 99 52
218 189 218 249 0 11 7 19 16 19 9 0 14 -3 12 -7z m-598 -33 c0 -5 -4 -10 -10
-10 -5 0 -10 5 -10 10 0 6 5 10 10 10 6 0 10 -4 10 -10z m215 -260 c-28 -12
-45 -12 -45 0 0 6 15 10 33 9 27 0 29 -2 12 -9z m-315 -39 c0 -6 -5 -13 -12
-17 -6 -4 -8 -3 -4 4 3 5 0 13 -6 15 -8 3 -6 6 5 6 9 1 17 -3 17 -8z m215 -24
c12 -3 4 -5 -17 -6 -36 -1 -47 7 -31 22 3 4 11 3 17 -2 6 -5 20 -11 31 -14z
m135 13 c-14 -4 -34 -8 -45 -8 -16 0 -15 2 5 8 14 4 34 8 45 8 16 0 15 -2 -5
-8z"/>
<path d="M1982 754 c-13 -20 -21 -38 -19 -40 7 -7 47 46 47 62 0 20 -2 18 -28
-22z"/>
<path d="M1860 642 c-26 -17 -41 -34 -36 -40 7 -7 76 41 70 49 -6 11 -4 12
-34 -9z"/>
<path d="M1959 647 c-30 -29 -76 -62 -102 -75 -43 -21 -61 -42 -38 -42 15 0
153 95 180 123 46 50 15 44 -40 -6z"/>
<path d="M1225 260 l-39 -40 39 -40 c21 -22 44 -40 50 -40 6 0 29 18 50 40
l39 40 -43 40 c-23 22 -46 40 -50 40 -4 0 -25 -18 -46 -40z"/>
<path d="M1005 199 l-80 -80 43 -40 c24 -21 47 -39 51 -39 13 0 81 76 75 83
-4 4 0 7 9 7 9 0 28 16 43 35 l27 36 -38 39 c-22 22 -42 40 -45 40 -3 0 -41
-36 -85 -81z"/>
<path d="M900 95 c-11 -14 -7 -22 25 -55 42 -43 62 -50 72 -24 4 10 -8 30 -33
55 -43 44 -46 45 -64 24z"/>
</g>
</svg>
